<svg width="228" height="25" viewBox="0 0 228 25" fill="none" xmlns="http://www.w3.org/2000/svg">
<path fill-rule="evenodd" clip-rule="evenodd" d="M11.3301 22.7326C10.7855 22.7478 10.2561 22.7023 9.7115 22.6265C8.24421 22.4144 6.86768 21.9446 5.59704 21.1718C2.78348 19.4746 0.983408 17.0046 0.242201 13.7617C0.0758079 13.0344 0.000174532 12.2919 0.000174532 11.5493C-0.0149521 8.57925 0.953155 5.97285 2.91962 3.76043C4.62894 1.85109 6.74667 0.684273 9.24257 0.199361C9.9384 0.0629794 10.6342 -0.0127882 11.3301 0.0175188C11.3301 1.15403 11.3301 2.27539 11.3301 3.4119C11.2998 3.42706 11.2695 3.44221 11.2393 3.47252C10.8309 3.76043 10.4225 4.0635 10.0292 4.38173C9.13668 5.1091 8.28959 5.88192 7.57864 6.80629C6.62566 8.03372 5.99034 9.38238 5.89958 10.9735C5.8542 11.7312 5.94496 12.4737 6.18698 13.1859C6.77692 14.9589 8.60725 16.7924 11.1788 16.8379C11.3301 16.8379 11.3603 16.8682 11.3603 17.0349C11.3452 17.8077 11.3452 19.3534 11.3452 19.3534C11.3452 19.3534 11.3452 19.4443 11.3452 19.4898C11.3301 20.5657 11.3301 21.6416 11.3301 22.7326Z" fill="#2B8EFF"/>
<path fill-rule="evenodd" clip-rule="evenodd" d="M11.3298 3.39671C11.3298 3.39671 11.3298 1.13883 11.3298 0.00232066C11.9499 -0.0128328 12.555 0.0477812 13.1601 0.138702C14.2946 0.320544 15.3837 0.653921 16.4123 1.18429C18.5452 2.2905 20.2242 3.86646 21.3587 6.01826C22.0092 7.26085 22.4327 8.5792 22.5991 9.95817C22.7958 11.5796 22.6445 13.1859 22.1604 14.7467C21.6008 16.5196 20.6629 18.0804 19.3469 19.3988C17.7435 20.9899 15.8375 22.0204 13.629 22.4901C12.8727 22.6417 12.1012 22.7326 11.3298 22.7174C11.3298 21.6264 11.3298 20.5505 11.3298 19.4594C11.3298 19.414 11.3298 19.3382 11.3298 19.3382C11.3298 19.3382 11.3751 19.3079 11.3903 19.2927C12.5701 18.4593 13.6895 17.5501 14.6576 16.459C15.2929 15.7468 15.8375 14.9891 16.2157 14.1102C16.7451 12.8676 16.9569 11.5947 16.6846 10.2461C16.2005 7.79122 14.0072 5.95765 11.481 5.89703C11.3146 5.89703 11.3298 5.76065 11.3298 5.76065V3.39671Z" fill="#0561E2"/>
<path d="M37.2881 14.9003C37.2881 15.5263 37.1854 16.1225 36.9947 16.7038C36.804 17.285 36.496 17.7918 36.1146 18.2389C35.7186 18.6861 35.2345 19.0289 34.6478 19.2972C34.061 19.5506 33.3716 19.6847 32.6089 19.6847C31.3767 19.6847 30.3646 19.3866 29.5872 18.8053C28.7951 18.224 28.2817 17.2999 28.0324 16.033L30.6287 15.407C30.7167 15.9287 30.922 16.346 31.2594 16.659C31.5821 16.972 31.9928 17.1211 32.4769 17.1211C33.269 17.1211 33.8117 16.8528 34.0904 16.3013C34.3691 15.7648 34.5158 15.0046 34.5158 14.0507V3.45337H37.2881V14.9003Z" fill="white"/>
<path d="M52.5719 13.4694C52.5719 14.4233 52.4105 15.2878 52.0878 16.0479C51.7651 16.823 51.325 17.4639 50.7677 18.0005C50.2103 18.537 49.5502 18.9544 48.7874 19.2376C48.0247 19.5357 47.1886 19.6698 46.2938 19.6698C45.3991 19.6698 44.563 19.5208 43.8149 19.2376C43.0521 18.9544 42.3921 18.537 41.82 18.0005C41.2479 17.4639 40.8079 16.8081 40.4999 16.0479C40.1772 15.2878 40.0305 14.4233 40.0305 13.4694V3.45337H42.8028V13.38C42.8028 13.7675 42.8615 14.1699 42.9788 14.6022C43.0961 15.0195 43.2868 15.4219 43.5655 15.7797C43.8296 16.1374 44.1963 16.4355 44.651 16.659C45.091 16.8975 45.6484 17.0018 46.3085 17.0018C46.9686 17.0018 47.526 16.8826 47.966 16.659C48.4061 16.4355 48.7728 16.1374 49.0515 15.7797C49.3155 15.4219 49.5209 15.0344 49.6382 14.6022C49.7555 14.1699 49.8142 13.7675 49.8142 13.38V3.45337H52.5865V13.4694H52.5719Z" fill="white"/>
<path d="M63.0745 6.85163C62.7811 6.41939 62.3851 6.10639 61.901 5.89772C61.4023 5.68906 60.8889 5.59963 60.3462 5.59963C60.0235 5.59963 59.7155 5.64434 59.4074 5.71887C59.0994 5.79339 58.8354 5.91263 58.6007 6.07658C58.3513 6.24054 58.1606 6.4492 58.0139 6.71749C57.8673 6.98578 57.7939 7.28387 57.7939 7.64159C57.7939 8.17816 57.9699 8.5955 58.3513 8.86378C58.718 9.14697 59.1727 9.40036 59.7154 9.59412C60.2582 9.80279 60.8449 10.0115 61.4903 10.2052C62.1357 10.399 62.7224 10.6673 63.2798 11.0101C63.8226 11.3529 64.2773 11.8149 64.644 12.3664C65.0107 12.9328 65.2014 13.6929 65.2014 14.617C65.2014 15.4666 65.0547 16.2119 64.7467 16.8379C64.4386 17.4788 64.0279 18.0004 63.4999 18.4178C62.9718 18.8351 62.3704 19.1481 61.681 19.3568C60.9916 19.5654 60.2582 19.6698 59.5101 19.6698C58.542 19.6698 57.6032 19.5058 56.7231 19.1779C55.8284 18.85 55.0509 18.2985 54.4055 17.5235L56.5031 15.4666C56.8405 15.9883 57.2805 16.3907 57.8379 16.6888C58.3953 16.9869 58.9674 17.1211 59.5834 17.1211C59.9061 17.1211 60.2288 17.0763 60.5515 16.9869C60.8742 16.8975 61.1676 16.7633 61.4316 16.5845C61.6957 16.4056 61.901 16.182 62.0624 15.8989C62.2237 15.6306 62.3117 15.3027 62.3117 14.9449C62.3117 14.3637 62.121 13.9165 61.7543 13.6035C61.3876 13.2905 60.9329 13.0222 60.3902 12.8136C59.8475 12.6049 59.2461 12.3962 58.6007 12.2025C57.9553 12.0087 57.3539 11.7404 56.8258 11.4125C56.2831 11.0846 55.8284 10.6375 55.4617 10.0711C55.0949 9.50469 54.9043 8.75945 54.9043 7.82045C54.9043 7.00068 55.0656 6.30015 55.403 5.70396C55.7257 5.10777 56.1657 4.61591 56.7085 4.21348C57.2365 3.82595 57.8526 3.52786 58.542 3.3341C59.2314 3.14033 59.9355 3.0509 60.6542 3.0509C61.4756 3.0509 62.2677 3.18505 63.0451 3.42352C63.8079 3.67691 64.512 4.09424 65.128 4.67553L63.0745 6.85163Z" fill="white"/>
<path d="M72.7558 3.45337C73.5039 3.45337 74.2227 3.52789 74.9267 3.67694C75.6162 3.82599 76.2322 4.07937 76.7603 4.42218C77.2883 4.7799 77.7137 5.24195 78.0218 5.82323C78.3298 6.41943 78.4911 7.14976 78.4911 8.02915C78.4911 9.02777 78.3151 9.83263 77.9777 10.4437C77.6404 11.0548 77.1857 11.5318 76.6136 11.8597C76.0415 12.1876 75.3815 12.4261 74.6187 12.5453C73.856 12.6645 73.0785 12.7242 72.2571 12.7242H70.2769V19.2823H67.5046V3.45337H72.7558ZM71.9638 10.3245C72.3598 10.3245 72.7705 10.3096 73.1959 10.2798C73.6213 10.25 74.0173 10.1605 74.3693 10.0115C74.7214 9.86244 75.0148 9.63887 75.2494 9.34077C75.4695 9.04268 75.5868 8.62534 75.5868 8.08877C75.5868 7.59691 75.4841 7.20938 75.2788 6.91129C75.0734 6.61319 74.8094 6.38962 74.4867 6.24057C74.164 6.07662 73.7973 5.98719 73.4012 5.94247C73.0052 5.89776 72.6238 5.86795 72.2571 5.86795H70.2769V10.3245H71.9638Z" fill="white"/>
<path d="M83.8155 3.45337H86.2064L92.9245 19.2823H89.7562L88.304 15.6604H81.5566L80.1484 19.2823H77.0388L83.8155 3.45337ZM87.3359 13.2458L84.9303 6.80695L82.4954 13.2458H87.3359Z" fill="white"/>
<path d="M96.2981 12.5155L90.4454 3.45337H93.9218L97.7502 9.75811L101.623 3.45337H104.923L99.0704 12.5155V19.2972H96.2981V12.5155Z" fill="white"/>
<path d="M111.618 19.5303V3.37744H113.603V10.2696L113.24 10.0776C113.524 9.35206 113.98 8.79017 114.605 8.39186C115.246 7.97932 115.992 7.77306 116.846 7.77306C117.671 7.77306 118.404 7.95799 119.044 8.32784C119.698 8.6977 120.21 9.20981 120.58 9.86418C120.964 10.5185 121.156 11.2583 121.156 12.0833V19.5303H119.15V12.7235C119.15 12.0833 119.03 11.5428 118.788 11.1018C118.56 10.6608 118.24 10.3194 117.828 10.0776C117.415 9.8215 116.938 9.69347 116.398 9.69347C115.872 9.69347 115.395 9.8215 114.968 10.0776C114.541 10.3194 114.207 10.6679 113.965 11.1231C113.724 11.5641 113.603 12.0975 113.603 12.7235V19.5303H111.618Z" fill="#CBCACF"/>
<path d="M123.766 24.2246C123.51 24.2246 123.254 24.2033 122.998 24.1606C122.742 24.1179 122.5 24.0468 122.272 23.9472V22.1762C122.429 22.2046 122.621 22.2331 122.849 22.2615C123.09 22.3042 123.325 22.3255 123.553 22.3255C124.221 22.3255 124.726 22.1762 125.068 21.8774C125.423 21.5929 125.758 21.095 126.071 20.3838L126.796 18.6554L126.753 20.3838L121.846 8.02911H124.001L127.82 17.8446H127.18L130.978 8.02911H133.176L127.991 20.8959C127.749 21.5076 127.436 22.0624 127.052 22.5602C126.682 23.0724 126.227 23.4778 125.687 23.7765C125.146 24.0752 124.506 24.2246 123.766 24.2246Z" fill="#CBCACF"/>
<path d="M134.301 23.7978V8.02911H136.243V10.5043L135.987 10.0135C136.414 9.33073 136.997 8.79017 137.737 8.39186C138.477 7.97932 139.323 7.77306 140.276 7.77306C141.357 7.77306 142.324 8.03623 143.178 8.56256C144.046 9.0889 144.729 9.80727 145.226 10.7177C145.724 11.6139 145.973 12.6381 145.973 13.7904C145.973 14.9142 145.724 15.9313 145.226 16.8417C144.729 17.7521 144.046 18.4705 143.178 18.9968C142.324 19.5231 141.35 19.7863 140.255 19.7863C139.33 19.7863 138.484 19.5801 137.715 19.1675C136.962 18.755 136.378 18.1717 135.966 17.4178L136.286 17.0764V23.7978H134.301ZM140.105 17.8659C140.831 17.8659 141.478 17.6881 142.047 17.3325C142.616 16.9768 143.057 16.4932 143.37 15.8815C143.697 15.2556 143.861 14.5585 143.861 13.7904C143.861 12.9937 143.697 12.2967 143.37 11.6992C143.057 11.0875 142.616 10.6039 142.047 10.2483C141.478 9.8784 140.831 9.69347 140.105 9.69347C139.38 9.69347 138.725 9.87129 138.142 10.2269C137.573 10.5826 137.118 11.0733 136.777 11.6992C136.449 12.3109 136.286 13.008 136.286 13.7904C136.286 14.5585 136.449 15.2556 136.777 15.8815C137.118 16.4932 137.573 16.9768 138.142 17.3325C138.725 17.6881 139.38 17.8659 140.105 17.8659Z" fill="#CBCACF"/>
<path d="M153.227 19.7863C152.117 19.7863 151.129 19.5231 150.261 18.9968C149.393 18.4705 148.71 17.7521 148.213 16.8417C147.715 15.917 147.466 14.8857 147.466 13.7477C147.466 12.5954 147.708 11.5712 148.191 10.675C148.689 9.77882 149.358 9.07467 150.197 8.56256C151.051 8.03623 152.004 7.77306 153.056 7.77306C153.91 7.77306 154.664 7.92954 155.318 8.24249C155.987 8.54122 156.549 8.95376 157.004 9.48009C157.473 9.9922 157.829 10.5826 158.071 11.2511C158.327 11.9055 158.455 12.5883 158.455 13.2996C158.455 13.4561 158.441 13.6339 158.412 13.833C158.398 14.018 158.377 14.1958 158.348 14.3665H148.917V12.6594H157.196L156.257 13.4276C156.385 12.6879 156.314 12.0264 156.044 11.4432C155.773 10.8599 155.375 10.3976 154.849 10.0562C154.322 9.71481 153.725 9.54411 153.056 9.54411C152.388 9.54411 151.776 9.71481 151.221 10.0562C150.666 10.3976 150.233 10.8884 149.92 11.5285C149.621 12.1544 149.5 12.9013 149.557 13.769C149.5 14.6083 149.628 15.348 149.941 15.9882C150.268 16.6141 150.723 17.1048 151.307 17.4605C151.904 17.8019 152.551 17.9726 153.248 17.9726C154.016 17.9726 154.664 17.7948 155.19 17.4391C155.716 17.0835 156.143 16.6283 156.47 16.0735L158.135 16.927C157.907 17.4534 157.551 17.937 157.068 18.378C156.598 18.8048 156.036 19.1462 155.382 19.4022C154.742 19.6583 154.024 19.7863 153.227 19.7863Z" fill="#CBCACF"/>
<path d="M160.402 19.5303V8.02911H162.344V10.1416L162.13 9.84284C162.401 9.18847 162.813 8.70481 163.368 8.39186C163.923 8.06468 164.598 7.90108 165.395 7.90108H166.099V9.77882H165.096C164.286 9.77882 163.631 10.0349 163.133 10.547C162.635 11.0449 162.386 11.7561 162.386 12.6808V19.5303H160.402Z" fill="#CBCACF"/>
<path d="M171.34 19.7863C170.188 19.7863 169.185 19.5018 168.331 18.9328C167.478 18.3638 166.873 17.5956 166.518 16.6283L168.097 15.8601C168.424 16.5429 168.872 17.0835 169.441 17.4818C170.01 17.8801 170.643 18.0793 171.34 18.0793C171.966 18.0793 172.485 17.9299 172.898 17.6312C173.31 17.3325 173.517 16.9413 173.517 16.4576C173.517 16.1162 173.417 15.8459 173.218 15.6468C173.033 15.4334 172.805 15.2698 172.535 15.156C172.265 15.028 172.016 14.9355 171.788 14.8786L170.06 14.3878C169.021 14.0891 168.26 13.6623 167.777 13.1075C167.307 12.5528 167.072 11.9055 167.072 11.1658C167.072 10.483 167.243 9.89263 167.585 9.39474C167.94 8.88263 168.417 8.48432 169.014 8.19982C169.626 7.91531 170.309 7.77306 171.063 7.77306C172.073 7.77306 172.976 8.02911 173.773 8.54122C174.583 9.05333 175.16 9.77171 175.501 10.6964L173.879 11.4432C173.623 10.8457 173.239 10.3763 172.727 10.0349C172.215 9.67925 171.639 9.50143 170.999 9.50143C170.415 9.50143 169.953 9.6508 169.612 9.94953C169.27 10.234 169.1 10.5968 169.1 11.0378C169.1 11.3649 169.185 11.6352 169.356 11.8486C169.526 12.0478 169.733 12.2042 169.974 12.318C170.216 12.4176 170.451 12.503 170.679 12.5741L172.556 13.1289C173.495 13.3992 174.221 13.8188 174.733 14.3878C175.259 14.9568 175.522 15.6396 175.522 16.4363C175.522 17.0764 175.344 17.6525 174.989 18.1646C174.633 18.6767 174.142 19.0751 173.517 19.3596C172.891 19.6441 172.165 19.7863 171.34 19.7863Z" fill="#CBCACF"/>
<path d="M179.917 19.5303L175.97 8.02911H178.168L181.304 17.6525L180.536 17.6312L183.609 8.02911H185.487L188.559 17.6312L187.791 17.6525L190.949 8.02911H193.126L189.178 19.5303H187.279L184.249 9.92819H184.846L181.816 19.5303H179.917Z" fill="#CBCACF"/>
<path d="M194.26 19.5303V8.02911H196.245V19.5303H194.26ZM194.26 6.19405V3.6335H196.245V6.19405H194.26Z" fill="#CBCACF"/>
<path d="M203.357 19.6583C202.233 19.6583 201.365 19.3382 200.753 18.6981C200.156 18.0579 199.857 17.1546 199.857 15.9882V9.92819H197.766V8.02911H198.193C198.705 8.02911 199.11 7.87263 199.409 7.55968C199.708 7.24672 199.857 6.83419 199.857 6.32208V5.38321H201.842V8.02911H204.424V9.92819H201.842V15.9241C201.842 16.3082 201.899 16.6425 202.012 16.927C202.14 17.2115 202.347 17.4391 202.631 17.6098C202.916 17.7663 203.293 17.8446 203.762 17.8446C203.862 17.8446 203.983 17.8375 204.125 17.8232C204.281 17.809 204.424 17.7948 204.552 17.7805V19.5303C204.367 19.5729 204.16 19.6014 203.933 19.6156C203.705 19.6441 203.513 19.6583 203.357 19.6583Z" fill="#CBCACF"/>
<path d="M211.526 19.7863C210.402 19.7863 209.399 19.5231 208.517 18.9968C207.649 18.4705 206.966 17.7521 206.468 16.8417C205.971 15.9313 205.722 14.907 205.722 13.769C205.722 12.6168 205.971 11.5925 206.468 10.6964C206.966 9.80016 207.649 9.0889 208.517 8.56256C209.399 8.03623 210.402 7.77306 211.526 7.77306C212.279 7.77306 212.984 7.9082 213.638 8.17848C214.292 8.44876 214.868 8.8115 215.366 9.26671C215.864 9.72192 216.227 10.2554 216.455 10.8671L214.684 11.7206C214.413 11.1231 214.001 10.6395 213.446 10.2696C212.891 9.88551 212.251 9.69347 211.526 9.69347C210.829 9.69347 210.195 9.87129 209.626 10.2269C209.072 10.5826 208.631 11.0662 208.304 11.6779C207.976 12.2896 207.813 12.9937 207.813 13.7904C207.813 14.5585 207.976 15.2556 208.304 15.8815C208.631 16.4932 209.072 16.9768 209.626 17.3325C210.195 17.6881 210.829 17.8659 211.526 17.8659C212.251 17.8659 212.891 17.681 213.446 17.3111C214.001 16.927 214.413 16.422 214.684 15.7961L216.455 16.6923C216.227 17.2898 215.864 17.8232 215.366 18.2927C214.868 18.7479 214.292 19.1106 213.638 19.3809C212.984 19.6512 212.279 19.7863 211.526 19.7863Z" fill="#CBCACF"/>
<path d="M218.408 19.5303V3.37744H220.392V10.2696L220.03 10.0776C220.314 9.35206 220.769 8.79017 221.395 8.39186C222.035 7.97932 222.782 7.77306 223.636 7.77306C224.461 7.77306 225.193 7.95799 225.833 8.32784C226.488 8.6977 227 9.20981 227.37 9.86418C227.754 10.5185 227.946 11.2583 227.946 12.0833V19.5303H225.94V12.7235C225.94 12.0833 225.819 11.5428 225.577 11.1018C225.35 10.6608 225.03 10.3194 224.617 10.0776C224.205 9.8215 223.728 9.69347 223.188 9.69347C222.661 9.69347 222.185 9.8215 221.758 10.0776C221.331 10.3194 220.997 10.6679 220.755 11.1231C220.513 11.5641 220.392 12.0975 220.392 12.7235V19.5303H218.408Z" fill="#CBCACF"/>
</svg>
